# AST/ASF file generated using VICON BodyLanguage
# -----------------------------------------------
:version 1.10
:name VICON
:units
  mass 1.0
  length 0.45
  angle deg
:documentation
   .ast/.asf automatically generated from VICON data using
   VICON BodyBuilder and BodyLanguage model FoxedUp or BRILLIANT.MOD
:root
   order TX TY TZ RX RY RZ
   axis XYZ
   position 0 0 0  
   orientation 0 0 0 
:bonedata
  begin
     id 1 
     name lhipjoint
     direction 0.627457 -0.725269 0.283342 
     length 2.53237 
     axis 0 0 0  XYZ
  end
  begin
     id 2 
     name lfemur
     direction 0.34202 -0.939693 0  
     length 7.32496  
     axis 0 0 20  XYZ
    dof rx ry rz
    limits (-160.0 20.0)
           (-70.0 70.0)
           (-60.0 70.0)
  end
  begin
     id 3 
     name ltibia
     direction 0.34202 -0.939693 0   
     length 7.69674   
     axis 0 0 20   XYZ
    dof rx
    limits (-10.0 170.0)
  end
  begin
     id 4 
     name lfoot
     direction 0.127289 -0.349722 0.928166   
     length 1.8612   
     axis -90 7.62852e-016 20   XYZ
    dof rx rz
    limits (-45.0 90.0)
           (-70.0 20.0)
  end
  begin
     id 5 
     name ltoes
     direction 1.53561e-011 -4.21864e-011 1   
     length 0.925608   
     axis -90 7.62852e-016 20   XYZ
    dof rx
    limits (-90.0 20.0)
  end
  begin
     id 6 
     name rhipjoint
     direction -0.609094 -0.738725 0.288599   
     length 2.48624  
     axis 0 0 0  XYZ 
  end
  begin
     id 7 
     name rfemur
     direction -0.34202 -0.939693 0   
     length 7.44259   
     axis 0 0 -20   XYZ
    dof rx ry rz
    limits (-160.0 20.0)
           (-70.0 70.0)
           (-70.0 60.0)
  end
  begin
     id 8 
     name rtibia
     direction -0.34202 -0.939693 0   
     length 7.7781   
     axis 0 0 -20   XYZ
    dof rx
    limits (-10.0 170.0)
 end
 begin
     id 9 
     name rfoot
     direction -0.107015 -0.294021 0.949789   
     length 2.14741  
     axis -90 -7.62852e-016 -20   XYZ
    dof rx rz
    limits (-45.0 90.0)
           (-20.0 70.0)
  end
  begin
     id 10 
     name rtoes
     direction -1.53497e-011 -4.21924e-011 1   
     length 1.0706   
     axis -90 -7.62852e-016 -20   XYZ
    dof rx
    limits (-90.0 20.0)
  end
  begin
     id 11 
     name lowerback
     direction -0.0142066 0.998112 -0.0597545   
     length 1.86627   
     axis 0 0 0   XYZ
    dof rx ry rz
    limits (-20.0 45.0)
           (-30.0 30.0)
           (-30.0 30.0)
  end
  begin
     id 12 
     name upperback
     direction 0.00547294 0.999744 0.0219437   
     length 1.86272   
     axis 0 0 0   XYZ
    dof rx ry rz
    limits (-20.0 45.0)
           (-30.0 30.0)
           (-30.0 30.0)
  end
  begin
     id 13 
     name thorax
     direction 0.0116162 0.998704 0.0495538   
     length 1.8703   
     axis 0 0 0   XYZ
    dof rx ry rz
    limits (-20.0 45.0)
           (-30.0 30.0)
           (-30.0 30.0)
  end
  begin
     id 14 
     name lowerneck
     direction -0.0106574 0.998739 0.0490586   
     length 1.8074   
     axis 0 0 0   XYZ
    dof rx ry rz
    limits (-20.0 45.0)
           (-30.0 30.0)
           (-30.0 30.0)
  end
  begin
     id 15 
     name upperneck
     direction 0.030527 0.976587 -0.212944   
     length 1.80681   
     axis 0 0 0   XYZ
    dof rx ry rz
    limits (-20.0 45.0)
           (-30.0 30.0)
           (-30.0 30.0)
  end
  begin
     id 16
     name head
     direction 0.00869225 0.997035 -0.0764531  
     length 1.8313  
     axis 0 0 0   XYZ
    dof rx ry rz
    limits (-20.0 45.0)
           (-30.0 30.0)
           (-30.0 30.0)
  end
  begin
     id 17 
     name lclavicle
     direction 0.915958 0.399447 0.0382386  
     length 3.78965  
     axis 0 0 0   XYZ
    dof ry rz
    limits (-20.0 10.0)
           (0.0 20.0)
  end
  begin
     id 18 
     name lhumerus
     direction 1 -4.48967e-011 3.19303e-027   
     length 4.78095   
     axis -180 -30 -90   XYZ
    dof rx ry rz
    limits (-60.0 90.0)
           (-90.0 90.0)
           (-90.0 90.0)
  end
  begin
     id 19
     name lradius
     direction 1 -4.48967e-011 -3.77974e-027   
     length 3.58615   
     axis -180 -30 -90   XYZ
    dof rx
    limits (-10.0 170.0)
  end
  begin
     id 20
     name lwrist
     direction 1 -4.48927e-011 1.2807e-027   
     length 1.79307   
     axis 1.91374e-015 90 90   XYZ
    dof ry
    limits (-180.0 0.0)
 end
  begin
     id 21 
     name lhand
     direction 1 -4.49036e-011 2.5614e-027   
     length 0.659812   
     axis -1.63439e-015 90 90   XYZ
    dof rx rz
    limits (-90.0 90.0)
           (-45.0 45.0)
  end
  begin
     id 22 
     name lfingers
     direction 1 -4.49052e-011 5.1228e-027   
     length 0.531957   
     axis -3.26879e-015 90 90   XYZ
    dof rx
    limits (0.0 90.0)
  end
  begin
     id 23
     name lthumb
     direction 0.707107 -6.35012e-011 0.707107   
     length 0.763787   
     axis -90 45 2.85299e-015   XYZ
    dof rx rz
    limits (-45.0 45.0)
           (-45.0 45.0)
  end
  begin
     id 24 
     name rclavicle
     direction -0.895351 0.435135 0.0948887   
     length 3.70497  
     axis 0 0 0   XYZ 
    dof ry rz
    limits (-10.0 20.0)
           (-20.0 0.0)
  end
  begin
     id 25 
     name rhumerus
     direction -1 -4.48971e-011 2.38946e-027  
     length 4.48913   
     axis -180 30 90   XYZ
    dof rx ry rz
    limits (-90.0 60.0)
           (-90.0 90.0)
           (-90.0 90.0)
  end
  begin
     id 26 
     name rradius
     direction -1 -4.4895e-011 4.38668e-027   
     length 3.7051   
     axis -180 30 90   XYZ
    dof rx
    limits (-10.0 170.0)
  end
  begin
     id 27 
     name rwrist
     direction -1 -4.49007e-011 1.2807e-027   
     length 1.85255   
     axis 1.91374e-015 -90 -90   XYZ
    dof ry
    limits (-180.0 0.0)
  end
  begin
     id 28
     name rhand
     direction -1 -4.48851e-011 2.5614e-027   
     length 0.449136   
     axis -1.63439e-015 -90 -90   XYZ
    dof rx rz
    limits (-90.0 90.0)
           (-45.0 45.0)
  end
  begin
     id 29
     name rfingers
     direction -1 -4.49128e-011 5.1228e-027   
     length 0.362105   
     axis -3.26879e-015 -90 -90   XYZ
    dof rx
    limits (0.0 90.0)
  end
  begin
     id 30
     name rthumb
     direction -0.707107 -6.34851e-011 0.707107   
     length 0.519912   
     axis -90 -45 -2.85299e-015   XYZ
    dof rx rz
    limits (-45.0 45.0)
           (-45.0 45.0)
  end
:hierarchy
  begin
    root lhipjoint rhipjoint lowerback
    lhipjoint lfemur
    lfemur ltibia
    ltibia lfoot
    lfoot ltoes
    rhipjoint rfemur
    rfemur rtibia
    rtibia rfoot
    rfoot rtoes
    lowerback upperback
    upperback thorax
    thorax lowerneck lclavicle rclavicle
    lowerneck upperneck
    upperneck head
    lclavicle lhumerus
    lhumerus lradius
    lradius lwrist
    lwrist lhand lthumb
    lhand lfingers
    rclavicle rhumerus
    rhumerus rradius
    rradius rwrist
    rwrist rhand rthumb
    rhand rfingers
  end

#!OML:ASF I:\Actors\actors\Patient Classification 2\Patient 1\Session 1\actor1.ASF
:FULLY-SPECIFIED
:DEGREES
1
root -0.681295 18.6896 5.98183 2.60303 -1.80944 -3.09507
lowerback -0.447916 0.598221 0.263691
upperback -2.77023 0.826987 1.20174
thorax -2.6039 0.422356 1.07016
lowerneck -12.2367 -2.24661 -1.57158
upperneck 25.8002 -3.79643 3.5395
head 10.3555 -1.49458 1.04885
rclavicle -1.32813e-014 -8.94531e-016
rhumerus -47.429 -2.97835 -86.3233
rradius 40.6772
rwrist 23.3153
rhand -7.21921 -29.8348
rfingers 7.12502
rthumb 18.66 -58.9598
lclavicle -1.32813e-014 -8.94531e-016
lhumerus -43.7178 0.0838664 91.1982
lradius 38.1653
lwrist -9.46443
lhand -9.82256 -29.1363
lfingers 7.12502
lthumb 16.1545 0.21049
rfemur 0 0 0
rtibia 0
rfoot 0 0
rtoes 0
lfemur -5.17637 -8.38385 -11.5291
ltibia 22.165
lfoot -24.5442 14.9587
ltoes -55.1347
2
root -0.681125 18.6895 5.98256 2.61314 -1.81575 -3.08176
lowerback -0.451024 0.598989 0.250649
upperback -2.79006 0.827877 1.19232
thorax -2.62263 0.423042 1.06772
lowerneck -12.2154 -2.24695 -1.55057
upperneck 25.8073 -3.79808 3.5237
head 10.3532 -1.49536 1.03969
rclavicle -6.71519e-015 -2.48481e-015
rhumerus -47.4666 -2.93028 -86.3539
rradius 40.7278
rwrist 23.2288
rhand -7.25503 -29.8809
rfingers 7.12502
rthumb 18.6255 -59.0092
lclavicle -6.71519e-015 -2.48481e-015
lhumerus -43.7347 0.129267 91.1442
lradius 38.1456
lwrist -9.67732
lhand -9.78341 -29.3505
lfingers 7.12502
lthumb 16.1922 -0.00673677
rfemur 0 0 0
rtibia 0
rfoot 0 0
rtoes 0
lfemur -5.17767 -8.39826 -11.5483
ltibia 22.1538
lfoot -24.558 15.0075
ltoes -55.1714
3
root -0.681043 18.6892 5.98304 2.60834 -1.80106 -3.0833
lowerback -0.443376 0.592435 0.244895
upperback -2.8037 0.819356 1.19432
thorax -2.64098 0.418994 1.07302
lowerneck -12.1997 -2.25092 -1.56743
upperneck 25.8238 -3.80199 3.52874
head 10.3567 -1.49825 1.04409
rclavicle 9.42364e-015 -9.93923e-017
rhumerus -47.4947 -2.89109 -86.3717
rradius 40.7534
rwrist 23.1632
rhand -7.37146 -29.8392
rfingers 7.12502
rthumb 18.5135 -58.9782
lclavicle 9.42364e-015 -9.93923e-017
lhumerus -43.7508 0.196557 91.1098
lradius 38.1354
lwrist -9.82692
lhand -9.75199 -29.4862
lfingers 7.12502
lthumb 16.2225 -0.144901
rfemur 0 0 0
rtibia 0
rfoot 0 0
rtoes 0
lfemur -5.17604 -8.4347 -11.5505
ltibia 22.1601
lfoot -24.574 15.0603
ltoes -55.1812
4
root -0.680926 18.6894 5.98365 2.59244 -1.78318 -3.07855
lowerback -0.433982 0.589552 0.24237
upperback -2.80785 0.815525 1.18966
thorax -2.65044 0.417099 1.0696
lowerneck -12.2049 -2.26345 -1.60072
upperneck 25.8373 -3.82398 3.57062
head 10.3649 -1.50652 1.06187
rclavicle -5.7896e-015 -1.33186e-014
rhumerus -47.5028 -2.88773 -86.3737
rradius 40.7387
rwrist 23.1674
rhand -7.43713 -29.8457
rfingers 7.12502
rthumb 18.4504 -58.9907
lclavicle -5.7896e-015 -1.33186e-014
lhumerus -43.7658 0.195993 91.1161
lradius 38.1484
lwrist -9.80487
lhand -9.68278 -29.4892
lfingers 7.12502
lthumb 16.2891 -0.153379
rfemur 0 0 0
rtibia 0
rfoot 0 0
rtoes 0
lfemur -5.1664 -8.40619 -11.5534
ltibia 22.17
lfoot -24.5643 15.038
ltoes -55.2083
5
root -0.680916 18.6896 5.98386 2.57758 -1.76543 -3.10535
lowerback -0.419781 0.581924 0.274716
upperback -2.81083 0.806001 1.19495
thorax -2.66097 0.411665 1.05693
lowerneck -12.1957 -2.27378 -1.63871
upperneck 25.8214 -3.84559 3.63074
head 10.3601 -1.51352 1.08698
rclavicle 5.684e-015 3.67752e-015
rhumerus -47.5049 -2.86811 -86.3746
rradius 40.7121
rwrist 23.2041
rhand -7.45319 -29.9056
rfingers 7.12502
rthumb 18.4349 -59.052
lclavicle 5.684e-015 3.67752e-015
lhumerus -43.77 0.156679 91.1536
lradius 38.1654
lwrist -9.68839
lhand -9.6251 -29.3457
lfingers 7.12502
lthumb 16.3446 -0.0144488
rfemur 0 0 0
rtibia 0
rfoot 0 0
rtoes 0
lfemur -5.16131 -8.38045 -11.5186
ltibia 22.1842
lfoot -24.5616 14.9766
ltoes -55.2124
6
root -0.680755 18.6895 5.98341 2.5625 -1.74265 -3.14241
lowerback -0.427667 0.573658 0.30421
upperback -2.79717 0.795412 1.21167
thorax -2.64211 0.405859 1.05791
lowerneck -12.1834 -2.285 -1.68751
upperneck 25.7892 -3.86352 3.68485
head 10.3487 -1.52079 1.11223
rclavicle 8.51668e-015 -1.97791e-014
rhumerus -47.5141 -2.84328 -86.3526
rradius 40.7179
rwrist 23.271
rhand -7.45734 -30.0135
rfingers 7.12502
rthumb 18.4309 -59.1603
lclavicle 8.51668e-015 -1.97791e-014
lhumerus -43.7458 0.156659 91.1838
lradius 38.167
lwrist -9.64985
lhand -9.65317 -29.284
lfingers 7.12502
lthumb 16.3176 0.049465
rfemur 0 0 0
rtibia 0
rfoot 0 0
rtoes 0
lfemur -5.1593 -8.36683 -11.4732
ltibia 22.1984
lfoot -24.5488 14.9344
ltoes -55.2105
7
root -0.680284 18.6899 5.98291 2.55144 -1.71882 -3.14016
lowerback -0.462957 0.576804 0.292155
upperback -2.77041 0.798931 1.21898
thorax -2.595 0.407905 1.07259
lowerneck -12.2145 -2.30746 -1.71745
upperneck 25.7928 -3.89383 3.70521
head 10.3582 -1.53477 1.12043
rclavicle -3.33586e-015 1.98785e-016
rhumerus -47.5057 -2.85172 -86.3145
rradius 40.7268
rwrist 23.3137
rhand -7.50384 -30.0356
rfingers 7.12502
rthumb 18.3862 -59.1867
lclavicle -3.33586e-015 1.98785e-016
lhumerus -43.7231 0.159679 91.1902
lradius 38.1809
lwrist -9.75993
lhand -9.6662 -29.4618
lfingers 7.12502
lthumb 16.3051 -0.127318
rfemur 0 0 0
rtibia 0
rfoot 0 0
rtoes 0
lfemur -5.15984 -8.38078 -11.4751
ltibia 22.2049
lfoot -24.5325 14.9592
ltoes -55.2207
8
root -0.679558 18.6897 5.98282 2.54518 -1.6968 -3.13524
lowerback -0.492729 0.586332 0.29294
upperback -2.75923 0.811248 1.22095
thorax -2.56696 0.414024 1.07431
lowerneck -12.2177 -2.336 -1.73418
upperneck 25.8084 -3.92933 3.6988
head 10.3659 -1.55318 1.11657
rclavicle 1.68905e-014 -1.03368e-014
rhumerus -47.4787 -2.90091 -86.2761
rradius 40.6871
rwrist 23.3439
rhand -7.53564 -29.9333
rfingers 7.12502
rthumb 18.3556 -59.0873
lclavicle 1.68905e-014 -1.03368e-014
lhumerus -43.7334 0.10895 91.2391
lradius 38.2288
lwrist -9.71687
lhand -9.69626 -29.4054
lfingers 7.12502
lthumb 16.2761 -0.0685427
rfemur 0 0 0
rtibia 0
rfoot 0 0
rtoes 0
lfemur -5.15853 -8.44384 -11.4892
ltibia 22.2052
lfoot -24.5708 15.0143
ltoes -55.2034
9
root -0.67936 18.6883 5.98222 2.54047 -1.67685 -3.14244
lowerback -0.495631 0.597807 0.308964
upperback -2.76343 0.826819 1.22376
thorax -2.56973 0.42149 1.06795
lowerneck -12.1877 -2.35308 -1.74647
upperneck 25.8003 -3.94628 3.68367
head 10.3575 -1.56435 1.11143
rclavicle -8.44835e-015 -7.15625e-015
rhumerus -47.4829 -2.92948 -86.2394
rradius 40.653
rwrist 23.3786
rhand -7.52213 -29.8136
rfingers 7.12502
rthumb 18.3686 -58.9663
lclavicle -8.44835e-015 -7.15625e-015
lhumerus -43.7653 0.0291112 91.3129
lradius 38.2981
lwrist -9.55886
lhand -9.77293 -29.1628
lfingers 7.12502
lthumb 16.2023 0.180073
rfemur 0 0 0
rtibia 0
rfoot 0 0
rtoes 0
lfemur -5.16625 -8.4439 -11.4798
ltibia 22.208
lfoot -24.6141 14.9532
ltoes -55.1594
10
root -0.679712 18.6875 5.98128 2.53026 -1.65235 -3.14808
lowerback -0.518136 0.599575 0.291037
upperback -2.74104 0.828888 1.24293
thorax -2.53459 0.423107 1.09799
lowerneck -12.1882 -2.34379 -1.7529
upperneck 25.7611 -3.92593 3.67052
head 10.3424 -1.55747 1.11027
rclavicle 1.19799e-014 1.0635e-014
rhumerus -47.4537 -2.89839 -86.2054
rradius 40.6278
rwrist 23.3887
rhand -7.52112 -29.7066
rfingers 7.12502
rthumb 18.3696 -58.8592
lclavicle 1.19799e-014 1.0635e-014
lhumerus -43.7272 0.0562589 91.3195
lradius 38.3004
lwrist -9.64298
lhand -9.75714 -29.1599
lfingers 7.12502
lthumb 16.2175 0.181793
rfemur 0 0 0
rtibia 0
rfoot 0 0
rtoes 0
lfemur -5.17377 -8.37542 -11.4603
ltibia 22.2106
lfoot -24.5744 14.8323
ltoes -55.1319
11
root -0.680167 18.688 5.9807 2.5209 -1.62789 -3.15345
lowerback -0.569249 0.591985 0.243459
upperback -2.70552 0.818137 1.28229
thorax -2.47035 0.419156 1.16597
lowerneck -12.1937 -2.3336 -1.78116
upperneck 25.725 -3.90346 3.67245
head 10.3302 -1.54991 1.11839
rclavicle -1.29831e-015 -6.4605e-015
rhumerus -47.3934 -2.81584 -86.1761
rradius 40.5899
rwrist 23.3432
rhand -7.56215 -29.6813
rfingers 7.12502
rthumb 18.3301 -58.8377
lclavicle -1.29831e-015 -6.4605e-015
lhumerus -43.6486 0.137333 91.3437
lradius 38.2647
lwrist -9.67534
lhand -9.7097 -29.1163
lfingers 7.12502
lthumb 16.2632 0.221665
rfemur 0 0 0
rtibia 0
rfoot 0 0
rtoes 0
lfemur -5.17878 -8.32936 -11.4443
ltibia 22.2164
lfoot -24.4948 14.792
ltoes -55.1426
12
root -0.679784 18.6881 5.97949 2.5223 -1.61412 -3.14402
lowerback -0.596675 0.597529 0.22872
upperback -2.69714 0.825179 1.29006
thorax -2.44677 0.423052 1.18242
lowerneck -12.169 -2.34691 -1.8118
upperneck 25.6996 -3.92362 3.70725
head 10.3182 -1.55869 1.13357
rclavicle -3.3576e-015 -3.52843e-015
rhumerus -47.3955 -2.78544 -86.1602
rradius 40.5827
rwrist 23.2995
rhand -7.58161 -29.6867
rfingers 7.12502
rthumb 18.3114 -58.8448
lclavicle -3.3576e-015 -3.52843e-015
lhumerus -43.6338 0.137945 91.3849
lradius 38.262
lwrist -9.59622
lhand -9.78203 -28.9859
lfingers 7.12502
lthumb 16.1935 0.35774
rfemur 0 0 0
rtibia 0
rfoot 0 0
rtoes 0
lfemur -5.20225 -8.32774 -11.451
ltibia 22.2315
lfoot -24.4585 14.7998
ltoes -55.1587
13
root -0.67901 18.6882 5.97748 2.52293 -1.60517 -3.1396
lowerback -0.605588 0.607393 0.25619
upperback -2.69615 0.838161 1.27457
thorax -2.44033 0.428732 1.15102
lowerneck -12.1385 -2.35698 -1.81692
upperneck 25.6686 -3.94521 3.74307
head 10.3025 -1.56572 1.14461
rclavicle -1.92573e-015 8.34896e-015
rhumerus -47.4189 -2.82157 -86.1517
rradius 40.6002
rwrist 23.2997
rhand -7.50662 -29.6463
rfingers 7.12502
rthumb 18.3835 -58.7977
lclavicle -1.92573e-015 8.34896e-015
lhumerus -43.6794 0.119754 91.3625
lradius 38.3122
lwrist -9.64898
lhand -9.87759 -28.9975
lfingers 7.12502
lthumb 16.1015 0.353602
rfemur 0 0 0
rtibia 0
rfoot 0 0
rtoes 0
lfemur -5.22264 -8.30568 -11.4563
ltibia 22.2463
lfoot -24.4229 14.8161
ltoes -55.2327
14
root -0.679706 18.6885 5.97516 2.51175 -1.58153 -3.16011
lowerback -0.617532 0.604251 0.277859
upperback -2.67881 0.833891 1.27938
thorax -2.41544 0.426115 1.14409
lowerneck -12.1308 -2.3501 -1.81357
upperneck 25.6428 -3.93712 3.75101
head 10.2914 -1.56111 1.14784
rclavicle 6.97921e-015 1.28713e-014
rhumerus -47.4235 -2.84412 -86.129
rradius 40.607
rwrist 23.3254
rhand -7.47313 -29.6051
rfingers 7.12502
rthumb 18.4157 -58.7533
lclavicle 6.97921e-015 1.28713e-014
lhumerus -43.6968 0.120754 91.3422
lradius 38.3698
lwrist -9.6767
lhand -9.8605 -28.935
lfingers 7.12502
lthumb 16.118 0.414789
rfemur 0 0 0
rtibia 0
rfoot 0 0
rtoes 0
lfemur -5.22617 -8.27793 -11.4282
ltibia 22.2551
lfoot -24.37 14.8141
ltoes -55.3002
15
root -0.680206 18.6886 5.97238 2.50921 -1.54571 -3.1796
lowerback -0.639498 0.593515 0.293222
upperback -2.65947 0.81942 1.29088
thorax -2.38286 0.418614 1.14784
lowerneck -12.1441 -2.34315 -1.8278
upperneck 25.6398 -3.92617 3.76075
head 10.2931 -1.55613 1.15495
rclavicle 4.5969e-015 1.20265e-014
rhumerus -47.4027 -2.86595 -86.0971
rradius 40.5781
rwrist 23.3976
rhand -7.49224 -29.7164
rfingers 7.12502
rthumb 18.3973 -58.8665
lclavicle 4.5969e-015 1.20265e-014
lhumerus -43.6338 0.163151 91.3193
lradius 38.3183
lwrist -9.7355
lhand -9.78867 -28.878
lfingers 7.12502
lthumb 16.1871 0.466134
rfemur 0 0 0
rtibia 0
rfoot 0 0
rtoes 0
lfemur -5.24772 -8.28892 -11.3958
ltibia 22.264
lfoot -24.3609 14.7676
ltoes -55.2572
